<?xml version="1.0" encoding="utf-8"?>
<!-- Generator: Adobe Illustrator 25.2.1, SVG Export Plug-In . SVG Version: 6.00 Build 0)  -->
<svg version="1.1" id="Layer_1" xmlns="http://www.w3.org/2000/svg" xmlns:xlink="http://www.w3.org/1999/xlink" x="0px" y="0px"
	 viewBox="0 0 594 324" style="enable-background:new 0 0 594 324;" xml:space="preserve">
<style type="text/css">
	.st0{fill:#124169;}
</style>
<g>
	<path class="st0" d="M541.85,86.68c-2.74-1.92-5.4-3.38-7.76-4.53c-2.28-1.1-4.28-1.92-5.8-2.62c-1.76-0.81-3.42,0.31-3.32,2.25
		c2.27,45.23-12.78,72.98-40.98,96.65c-23.5,19.71-55.57,37.15-108.77,45.75h-0.27c-6.55,1.05-13.43,1.97-20.64,2.73
		c-21.85,2.33-43.86,0.91-60.75-2.71c-51.01-10.95-82.91-42.12-55.46-66.51c2.33-2.08-0.43-5.5-2.94-3.66
		c-34.54,25.31-19.14,44.68-2.25,59.7c4.44,3.95,15.56,10.61,15.56,10.61c52.16,27.71,156.91,24.22,235.04,1.39
		c1.7-0.5,3.39-1.01,5.07-1.48v-0.04C571.84,198.51,628.2,147.62,541.85,86.68z"/>
	<path class="st0" d="M277.41,20.6c77.82,21.92,117.14,42.93,142.61,67.49c23.83,23,36.54,48.42,16.01,80.4
		c-25.2,39.21-136.88,53.11-177.85,15.89c-2.29-2.09-5.39,0.96-3.33,3.29c24.32,27.45,61.39,29.82,94.27,29.75
		C526.56,217,577.94-2.66,296.1,13.54c-8.92,0.51-14.58,1.81-18.45,2.48C274.92,16.5,274.75,19.85,277.41,20.6z"/>
	<path class="st0" d="M48.44,100.92c75.43-23.98,130.34-31.23,184.66-30.38c50.84,0.79,101.69,7.99,146.15,34.01
		c49.58,29.01,23.77,85.54-62.19,85.32c-3.15,0-3.27,4.53-0.12,4.69c56.75,2.73,79.48-12.44,96.28-27.69
		c45.41-41.25-21.93-95.58-105.88-121.34C221.23,19.1,109.19,18.85,50.95,87.77c-1.93,2.29-3.09,4.3-3.88,6.06
		c-0.73,1.61-1.1,2.95-1.51,4C44.74,99.89,46.34,101.59,48.44,100.92z"/>
	<path class="st0" d="M110.01,145.58c26.44-22.19,63.68-41.48,129.68-48.49c84.91-9.01,153.18,36.39,116.21,69.25
		c-2.33,2.07,0.43,5.47,2.94,3.64c34.55-25.31,19.14-44.67,2.25-59.69c-43.7-38.86-163.63-37.42-250.6-12
		c-79.9,23.35-137.72,69.65-74.92,125.93l0.03,0h-0.03c4.8,4.31,10.31,8.67,16.57,13.08c2.74,1.94,5.26,3.74,7.63,4.9
		c2.28,1.11,4.18,2.18,5.8,2.6c2.07,0.54,3.55-0.65,3.45-2.58c-0.32-6.38-0.3-12.38,0.05-18.01h-0.13l0.13-0.08
		C71.24,189.28,85.77,165.91,110.01,145.58z"/>
	<path class="st0" d="M545.55,223.08c-1.04,0.32-2.07,0.66-3.1,1.04h-0.24c-73.71,23.15-127.8,30.16-181.32,29.34
		c-47.56-0.75-95.14-7.11-137.5-29.24h-0.04c-2.89-1.52-5.76-3.1-8.6-4.76c-49.58-29.01-23.77-85.54,62.19-85.34
		c3.15,0.02,3.27-4.53,0.12-4.68c-56.75-2.74-79.48,12.43-96.28,27.69c-22.89,20.8-17.13,44.92,4.98,67.09h0.07
		c21.76,21.72,59.26,41.48,100.84,54.25c86.11,26.44,198.15,26.67,256.4-42.25c1.93-2.28,3.09-4.3,3.88-6.05
		c0.72-1.61,1.1-2.95,1.51-4c0.28-0.72,0.27-1.4,0.04-1.94C548.07,223.2,546.92,222.65,545.55,223.08z"/>
	<path class="st0" d="M316.59,303.4c-77.82-21.93-117.15-42.93-142.61-67.5c-3.97-3.83-7.64-7.72-10.88-11.68v-0.03
		c-16.27-19.93-22.25-42.04-5.13-68.69c25.2-39.21,136.88-53.11,177.85-15.9c2.3,2.09,5.4-0.97,3.33-3.29
		c-24.32-27.44-61.39-29.82-94.27-29.75c-94.04,0.22-152.67,62.02-145.07,117.65c6.74,49.35,65.6,93.85,198.08,86.23
		c8.92-0.52,14.58-1.82,18.45-2.49C319.07,307.49,319.25,304.16,316.59,303.4z"/>
</g>
</svg>
